<svg id="Layer_1" data-name="Layer 1" xmlns="http://www.w3.org/2000/svg" viewBox="0 0 596.97 596.97"><defs><style>.cls-1{fill:#34210f;}.cls-2{fill:#ffe9d0;}</style></defs><title>Ronak Seal Shapes Tuft Inverted</title><circle class="cls-1" cx="298.49" cy="298.49" r="298.49"/><path class="cls-1" d="M306.82,91.17A280,280,0,0,0,48.69,478.74a259,259,0,0,0,26.05,48.14A256.48,256.48,0,0,0,110.67,568a275.9,275.9,0,0,0,43,33.11,308.41,308.41,0,0,0,48.24,24.09,313.15,313.15,0,0,0,51.39,15.74A278.73,278.73,0,0,0,582,426.56a282.05,282.05,0,0,0-13.75-163c-13.74-34.35-34.27-66.25-60.71-92.4a256.54,256.54,0,0,0-43.4-34.71,277.29,277.29,0,0,0-49.53-24.74,306.27,306.27,0,0,0-53-15.12A289.16,289.16,0,0,0,306.82,91.17Z" transform="translate(-7.51 -76.2)"/><path class="cls-2" d="M308.39,266.71a26,26,0,0,1,3.85-4.41,11.4,11.4,0,0,1,3.1-2,4.88,4.88,0,0,1,2.56-.36c.77.15,1.5.44,2.24.66l8.92,2.79L346.88,269l35.58,11.38c23.67,7.72,47.33,15.49,70.89,23.57s47.09,16.27,70.51,24.78c11.71,4.28,23.41,8.58,35.07,13s23.29,8.92,34.87,13.6l-2.8,8.77q-18.22-4.33-36.31-9.08c-12.07-3.13-24.1-6.39-36.12-9.68q-36-9.92-71.85-20.58c-23.89-7-47.69-14.38-71.47-21.78l-35.6-11.3-17.77-5.75L313,283c-.74-.26-1.5-.44-2.21-.76a5,5,0,0,1-1.89-1.78,11.57,11.57,0,0,1-1.35-3.44,25.18,25.18,0,0,1-.6-5.82Z" transform="translate(-7.51 -76.2)"/><path class="cls-2" d="M60.87,504.76c6.05-23.23,12.07-46.61,16.09-70.39,4.1-24.27,6.85-48.75,10.06-73.15,1.77-13.46,3.68-26.91,6-40.28q1.78-10.21,4-20.36c1.21-5.62,1.82-12.39,5-17.3a16,16,0,0,1,10.86-6.64A27.21,27.21,0,0,1,125.8,278c3.61,1.19,7.18,3,9.57,5.93,2.74,3.42,3.58,8.06,3.21,12.43-.57,6.7-3.09,13.62-4.66,20.17A817.66,817.66,0,0,1,88.86,451.85C80.86,470.19,72,488.21,60.87,504.76Z" transform="translate(-7.51 -76.2)"/><path class="cls-2" d="M26.17,323c44.86-78,116.2-137.55,188.51-189.12,15.91-11.35,32.27-22.57,50.72-29.06s39.47-7.86,57.19.4c21.55,10,35.12,33.3,37.41,57s-5.47,47.44-17.58,67.89a230,230,0,0,1-63,68.51c-25.83,18.73-53,33-79,47.54l-19.58,11.07L161,368.22c-6.62,3.66-13.24,7.3-19.93,10.85s-18.51,7.81-25.27,11.26l-2.54-12.14c5.76-4.94,11.62-9.73,17.45-14.55,46.62-38.8,101.2-70.69,142.71-115.17,20.27-21.72,37.28-48.9,37.35-78.62,0-6.78-1.45-14.52-7.28-18-4.21-2.5-9.54-2-14.3-.85-15.93,3.84-29.67,13.65-43,23.19Q191.57,213.33,136,251.15q-28.09,19.12-56.4,37.91-14.16,9.4-28.37,18.71c-4.7,3.08-9.32,6.4-14.17,9.25C34.28,318.67,29,322.06,26.17,323Z" transform="translate(-7.51 -76.2)"/><path class="cls-2" d="M91.37,390.36c28.44-23.89,73.78-22.05,100,4.38,13.94,14.07,21.52,33,31.27,50.26,21.81,38.55,55.22,69.33,91,95.44,36.31,26.51,75,52.25,113.72,75,3.84,2.25,8.66,4.88,11.43,8.28-22,9.35-56.5.3-77.73-7.62C335.73,606.64,312.56,591.53,293,573c-39.06-37-64.94-85.5-88.7-133.77-8.7-17.68-18.09-36.43-35-46.54a56.11,56.11,0,0,0-32.55-7.41,62.57,62.57,0,0,0-26.21,7.89C100.34,398.87,99.55,399.25,91.37,390.36Z" transform="translate(-7.51 -76.2)"/><path class="cls-2" d="M585,392.84l-29.38,5.24c2.53-5.94,4.93-11.94,7.15-18,5.46-15,10-30.26,14-45.64,2-7.54,4.25-15.14,5.77-22.79a41.16,41.16,0,0,0,1-9.38c0-1.22-.82-8.38-2.65-8.45-4.06-.16-7,12.52-8.07,15.22q-4.1,10.47-8.3,20.91-4.32,10.72-8.86,21.33c-8.7,20.36-17.92,40.44-27.31,60.56q-10.12,21.33-20.63,42.47c-6.8,13.68-12.57,28.88-21.24,41.5-1.33,1.93-4.11,3.34-6,1.91a4.86,4.86,0,0,1-1.43-2.23c-2.49-6.69-.27-14.24,3.08-20.55,6.08-11.45,12.55-22.7,18.69-34.14,5.1-9.48,10.51-18.84,15-28.68,1.37-3,2.69-6.14,2.82-9.44s-1.19-6.86-4-8.53c-3.28-1.92-7.67-.79-10.58,1.68s-4.67,6-6.35,9.4c-1.22-7.86-10-12.78-17.95-12.16s-14.92,5.36-20.91,10.58c-15.29,13.32-26.74,30.53-36.07,48.53-3.19,6.16-6.21,12.51-10.77,17.74s-11,9.29-17.93,9.23c5.82-16.17,16.85-29.83,26.86-43.8s19.4-29.29,21.1-46.4c.83-8.35-.85-17.92-7.76-22.69-4.89-3.37-11.31-3.55-17.19-2.73a60.53,60.53,0,0,0-36.67,19.8c1.76-2,4.59-2.69,7.08-3a64.59,64.59,0,0,1,9.22-.58A83.27,83.27,0,0,1,415.1,382q2.61.62,5.21,1.37a2,2,0,0,1,1.85,2.79c-2.31,10.59-7.7,20.47-13.29,29.65s-11.63,17.79-16.9,27a101.26,101.26,0,0,0-9.9,22.6c-2.21,7.9-2.6,17.56,3.47,23.09,4,3.67,10,4.5,15.36,3.35s10.11-4,14.65-7c-.06,4.3-.1,8.7,1.32,12.76s4.65,7.76,8.88,8.52c3.45.61,6.92-.77,10.1-2.26A126.51,126.51,0,0,0,461.34,488c.6,5,1.22,10.15,3.06,14.89s5.05,9.14,9.62,11.35c7.57,3.65,17,.31,22.92-5.68a45,45,0,0,0,8.57-13.41,108.5,108.5,0,0,1,6.78-13.07c7.47-12.23,14-24.93,20.77-37.6l2-3.71c-.08,10-.93,20.13-1.77,30.07-1.42,16.77-5.17,36.45,2.46,51.36,5,9.75,17.88-1.07,12.91-10.77-3.11-6.08-1.86-14.91-1.39-21.79.63-9,1.52-18.06,2.19-27.09,1.23-16.54,1.58-32.71-.85-48.79l0-.06,40.12-7.16C597.6,405,593.84,391.27,585,392.84ZM470.11,456.77A98,98,0,0,1,434.78,488c-2.06,1.06-5.14,1.76-6.24-.29a4.55,4.55,0,0,1-.22-2.81A91.94,91.94,0,0,1,440.22,451a68.73,68.73,0,0,0,4.4-8.1,147.73,147.73,0,0,1,10.54-16.37A58,58,0,0,1,470.39,412c2.86-1.78,6.33-3.24,9.52-2.15a8.65,8.65,0,0,1,5.21,6.4,20.13,20.13,0,0,1-.32,8.56,73.28,73.28,0,0,1-5,15.07c-1.62,2.76-3.25,5.53-4.85,8.31S471.68,453.89,470.11,456.77Z" transform="translate(-7.51 -76.2)"/><path class="cls-2" d="M539.8,208.23c-15.6-14.87-37.39-21.82-58.84-24.59C417.37,175.45,355.7,201,313,247.75q-10.33,11.31-19.61,22.87c-12.82,16-26.36,31.69-35.65,50.08-9.21,18.22-15,38-18.84,58-2.9,15.17-5.37,31.81-3.66,47.25,1,8.88,4,17.78,10,24.4,6.42,7.08,15.83,11,25.32,12.1,16.2,1.87,32.83-2.59,46.37-11.56,14-9.27,19.18-21.49,27.71-36.15,4.53-7.8,11.8-23.18,22.53-23.39-1.75,5.27-5.57,10.31-8.31,15.14l-9.68,17.08c-7.09,12.61-14.26,25.2-21.17,37.89a5.14,5.14,0,0,0-.89,3,4.42,4.42,0,0,0,1.93,2.73c2.84,2.2,7.49,4.39,11,2.55,4-2.1,6.77-8.64,8.81-12.41,18.07-33.47,37.68-66.37,59.7-97.34a4.53,4.53,0,0,0,.53-.9,2.23,2.23,0,0,0-.33-3.05c-9.09-8.49-24.68-6.57-31.17,3.93-2.1,3.41-3.32,7.42-6.46,10.08-3.81,3.24-8.08,7-12.75,8.89a4.07,4.07,0,0,1-2.05.4c-1.39-.19-2.31-1.6-2.62-3-.58-2.58-.57-5.16-1.41-7.71a27.35,27.35,0,0,0-3.19-6.57,22.38,22.38,0,0,0-11-9,16.39,16.39,0,0,0-9.92-.26,18.65,18.65,0,0,0-8.66,5.67c-7,7.84-9.94,20-5.61,29.79,3.76,8.47,11.63,12.19,20.38,12.75,2.37.16-4.65,13.46-7.66,17.71a61.71,61.71,0,0,1-13.22,13.34c-12.85,9.7-30,14.52-46,11.73-4.59-.8-9.53-2.09-12.77-5.69a16.42,16.42,0,0,1-3.72-8.6c-.65-4.33-.34-8.89-.12-13.24q.31-6.07,1.17-12.11A140.5,140.5,0,0,1,257.38,381a174.8,174.8,0,0,1,20.8-42.5,257,257,0,0,1,22-28.5c21.91-24.88,46.72-47.71,75.84-63.56,25.83-14.07,54.37-22.25,83.19-27.53,14.41-2.64,28.93-4.58,43.48-6.24,7.27-.83,14.55-1.58,21.83-2.32,2.78-.27,10.68-.82,15-1.55C539.82,208.73,540,208.46,539.8,208.23ZM331,385.06a1.76,1.76,0,0,1-1-.56,1.89,1.89,0,0,1-.27-.88,22.25,22.25,0,0,1,1.39-10.71,4,4,0,0,1,2-2.47,2.89,2.89,0,0,1,2.82.72,10.44,10.44,0,0,1,3,6,20.12,20.12,0,0,1-.13,7.65,1.24,1.24,0,0,1-.34.74,1.27,1.27,0,0,1-.75.22A17.94,17.94,0,0,1,331,385.06Z" transform="translate(-7.51 -76.2)"/><path class="cls-2" d="M306.82,91.17A280,280,0,0,0,48.69,478.74a259,259,0,0,0,26.05,48.14A256.48,256.48,0,0,0,110.67,568a275.9,275.9,0,0,0,43,33.11,308.41,308.41,0,0,0,48.24,24.09,313.15,313.15,0,0,0,51.39,15.74A278.73,278.73,0,0,0,582,426.56a282.05,282.05,0,0,0-13.75-163c-13.74-34.35-34.27-66.25-60.71-92.4a256.54,256.54,0,0,0-43.4-34.71,277.29,277.29,0,0,0-49.53-24.74,306.27,306.27,0,0,0-53-15.12A289.16,289.16,0,0,0,306.82,91.17Zm0-8.28a286.07,286.07,0,0,1,56.38,5.5c4.65.89,9.21,2.16,13.81,3.22s9.09,2.6,13.61,4,8.91,3.16,13.36,4.72,8.73,3.58,13.1,5.36A289.77,289.77,0,0,1,466,133.6a323.07,323.07,0,0,1,42.92,36.13c26.28,26.59,48,57.82,62.82,92.36a287.9,287.9,0,0,1,23.37,109.73A290.62,290.62,0,0,1,306.82,666.48a297.87,297.87,0,0,1-57.59-5.08,262.88,262.88,0,0,1-55.47-16.63,266.74,266.74,0,0,1-50.2-28.6,297.21,297.21,0,0,1-43.35-37.74A320.35,320.35,0,0,1,65.3,533.21,312.65,312.65,0,0,1,38.67,482.9a289.43,289.43,0,0,1,268.15-400Z" transform="translate(-7.51 -76.2)"/></svg>