<?xml version="1.0" standalone="no"?>
<!DOCTYPE svg PUBLIC "-//W3C//DTD SVG 20010904//EN"
 "http://www.w3.org/TR/2001/REC-SVG-20010904/DTD/svg10.dtd">
<svg version="1.0" xmlns="http://www.w3.org/2000/svg"
 width="296.000000pt" height="296.000000pt" viewBox="0 0 296.000000 296.000000"
 preserveAspectRatio="xMidYMid meet">
<metadata>
Created by potrace 1.11, written by Peter Selinger 2001-2013
</metadata>
<g transform="translate(0.000000,296.000000) scale(0.100000,-0.100000)"
fill="#000000" stroke="none">
<path d="M1283 2948 c-165 -22 -392 -101 -538 -186 -388 -227 -671 -658 -712
-1087 -8 -86 -8 -237 0 -330 38 -412 266 -810 610 -1067 183 -135 414 -230
622 -254 33 -3 69 -8 80 -10 29 -6 225 -6 255 0 14 3 45 7 70 10 205 24 440
111 624 232 119 79 291 248 379 371 225 317 310 680 252 1075 -55 377 -244
692 -570 953 -185 148 -435 258 -660 290 -74 10 -341 13 -412 3z m322 -42
c232 -14 496 -105 709 -244 73 -48 296 -260 296 -282 0 -8 -4 -9 -12 -3 -20
15 -111 51 -144 57 -237 44 -445 17 -646 -84 -92 -46 -96 -47 -88 -24 23 60
37 158 34 233 -6 122 -71 229 -167 275 -61 30 -92 37 -169 37 -134 0 -229 -50
-566 -300 -272 -201 -485 -410 -667 -653 -31 -43 -59 -78 -61 -78 -6 0 35 128
65 205 121 302 400 594 702 734 162 75 331 118 494 128 55 3 101 7 103 8 2 2
11 1 20 -1 9 -1 53 -5 97 -8z m-107 -335 c34 -98 -30 -280 -148 -416 -79 -91
-147 -151 -335 -292 -146 -110 -421 -325 -454 -356 -23 -21 -24 -21 -19 -2 3
11 26 102 53 201 51 193 52 222 12 249 -40 26 -109 30 -134 9 -22 -18 -45 -89
-58 -172 -3 -21 -7 -49 -10 -62 -9 -48 -34 -226 -40 -287 -3 -34 -7 -70 -9
-80 -2 -10 -7 -43 -11 -73 -8 -65 -59 -312 -79 -387 -8 -29 -11 -53 -7 -53 22
0 153 278 201 425 12 39 29 82 36 96 19 38 67 54 159 54 142 0 198 -48 306
-258 40 -78 94 -180 121 -226 26 -46 48 -85 48 -87 0 -7 89 -136 144 -209 175
-233 407 -386 637 -420 24 -3 53 -8 64 -10 11 -2 25 -4 30 -5 29 -3 -217 -71
-310 -85 -70 -11 -288 -13 -350 -4 -33 5 -71 11 -85 13 -65 10 -169 39 -258
72 -391 146 -672 407 -817 759 -78 189 -105 346 -100 570 3 145 8 195 23 221
4 6 150 107 324 223 175 116 431 290 569 387 293 204 341 233 406 243 58 9 78
1 91 -38z m1157 -264 c21 -7 32 -25 95 -143 39 -72 86 -191 100 -252 8 -33 2
-66 -25 -127 -7 -16 -21 -49 -30 -72 -10 -24 -21 -43 -25 -43 -5 0 -98 43
-207 96 -109 53 -229 111 -268 129 -38 18 -141 67 -229 109 -87 42 -183 83
-213 92 -62 18 -62 17 30 65 90 46 458 129 645 145 42 4 78 8 80 9 4 4 21 1
47 -8z m-900 -306 c26 -24 101 -67 189 -110 81 -39 149 -71 150 -71 2 0 91
-42 197 -93 107 -52 245 -118 307 -147 61 -29 112 -56 112 -59 0 -4 -18 -42
-41 -86 -22 -44 -97 -192 -167 -328 -106 -210 -128 -246 -138 -232 -19 26 -5
102 32 172 39 74 44 130 17 181 -38 70 -119 88 -184 41 -16 -11 -73 -81 -125
-155 -89 -125 -136 -175 -151 -160 -14 13 62 136 133 216 99 110 108 129 109
215 0 58 -4 76 -24 104 -13 18 -38 39 -55 46 -28 12 -36 10 -98 -21 -37 -19
-68 -32 -68 -30 0 3 11 22 25 43 l26 37 -23 13 c-13 7 -29 12 -35 13 -7 0 -56
-30 -110 -66 -115 -78 -123 -82 -123 -59 0 52 -69 125 -118 125 -50 0 -93
-132 -62 -189 14 -28 65 -50 107 -47 l31 2 -23 -46 c-35 -68 -99 -125 -200
-175 -135 -67 -189 -65 -236 11 -38 62 -31 157 22 319 46 138 108 237 216 343
88 87 248 232 256 232 6 0 29 -18 52 -39z m1130 -233 c14 -95 20 -184 15 -210
l-5 -26 -32 42 c-35 45 -35 43 -9 186 2 14 5 31 5 38 2 30 20 8 26 -30z
m-1648 -15 c-48 -96 -79 -204 -101 -353 -25 -163 0 -265 77 -321 50 -36 86
-37 173 -4 131 49 260 155 300 244 15 34 30 49 68 68 l50 25 -19 -28 c-39 -60
-126 -210 -162 -281 -39 -77 -38 -90 7 -95 22 -3 30 7 68 82 47 92 149 259
185 302 22 27 33 31 135 43 43 5 52 4 53 -9 1 -9 2 -22 3 -28 4 -25 -25 -82
-78 -152 -64 -85 -91 -136 -111 -213 -19 -74 -19 -96 3 -122 28 -34 73 -42
120 -21 l40 18 6 -29 c7 -34 39 -69 65 -69 10 0 48 20 85 45 62 43 67 44 66
10 -1 -15 33 -66 52 -79 25 -18 70 -21 97 -6 10 5 37 42 60 82 23 40 49 84 57
98 8 14 28 51 44 82 46 89 53 85 45 -28 -11 -136 -9 -191 8 -246 18 -57 11
-73 -66 -163 -78 -92 -169 -174 -273 -247 -64 -45 -162 -97 -178 -94 -15 2
-212 127 -401 255 -387 261 -526 396 -667 645 -114 204 -175 272 -268 302 -54
18 -85 34 -63 34 6 0 129 67 274 150 145 82 265 149 267 150 1 0 -8 -21 -21
-47z m416 -282 c22 -37 13 -51 -28 -43 -27 5 -40 31 -30 63 9 29 35 20 58 -20z
m1249 27 c3 -7 2 -35 -1 -63 l-6 -50 -62 1 c-35 0 -65 3 -68 6 -4 4 4 35 30
106 3 7 23 12 54 12 30 0 51 -5 53 -12z m-17 -225 c-11 -59 -35 -152 -57 -218
-39 -114 -167 -352 -169 -315 -3 48 5 115 21 190 39 176 41 201 25 301 -9 61
7 73 109 77 l77 3 -6 -38z m-532 -85 c3 -11 -12 -53 -35 -99 -34 -67 -53 -90
-113 -139 -40 -33 -75 -56 -79 -53 -15 15 -5 103 16 140 37 65 117 167 140
179 27 15 64 0 71 -28z"/>
</g>
</svg>
